ply
format ascii 1.0
element vertex 23
property float x
property float y
property float z
end_header
-5.53806 -4.23747 -1.5237
-25.7001 -19.7426 7.0967
-6.60377 -27.1865 2.78047
9.30691 -32.8093 0.721724
-25.5753 -19.8605 8.29053
-26.7977 -19.2893 -5.21393
26.7278 28.0001 4.28176
9.19787 40.7516 0.371303
-0.55494 10.4841 -0.727849
18.9387 -11.6264 0.08372
28.3187 40.239 6.15314
15.2603 -34.293 -4.63639
22.7567 6.85785 2.72154
-24.8866 -20.325 12.111
-28.3031 -16.6079 -5.99176
18.0479 -16.3921 -0.430456
16.4043 -25.8523 -2.69973
4.31747 25.3741 -0.403257
-24.7159 -20.4773 12.3419
12.4254 48.6306 -0.503303
12.3552 -37.4851 -0.901927
-26.7346 -19.2521 -4.96737
-28.869 -15.9302 -8.64239
