ply
format ascii 1.0
element vertex 29
property float x
property float y
property float z
property uchar diffuse_red
property uchar diffuse_green
property uchar diffuse_blue
end_header
-5.53806 -4.23747 -1.5237 255 0 255
-25.7001 -19.7426 7.0967 255 0 255
-6.60377 -27.1865 2.78047 255 0 255
9.30691 -32.8093 0.721724 255 0 255
-26.1322 -19.8169 -5.4608 0 255 0
13.0452 49.6524 -0.600887 0 255 0
-25.5753 -19.8605 8.29053 255 0 255
-26.7977 -19.2893 -5.21393 255 0 255
26.7278 28.0001 4.28176 255 0 255
24.9812 42.1442 -4.1928 0 255 0
9.19787 40.7516 0.371303 255 0 255
-0.55494 10.4841 -0.727849 255 0 255
18.9387 -11.6264 0.08372 255 0 255
28.3187 40.239 6.15314 255 0 255
15.2603 -34.293 -4.63639 255 0 255
22.7567 6.85785 2.72154 255 0 255
-24.8866 -20.325 12.111 255 0 255
-28.3031 -16.6079 -5.99176 255 0 255
18.0479 -16.3921 -0.430456 255 0 255
-25.9334 -18.2422 -6.06182 0 255 0
16.4043 -25.8523 -2.69973 255 0 255
4.31747 25.3741 -0.403257 255 0 255
18.4038 45.5079 -1.95814 0 255 0
-24.7159 -20.4773 12.3419 255 0 255
12.4254 48.6306 -0.503303 255 0 255
12.3552 -37.4851 -0.901927 255 0 255
25.8502 41.7808 -2.01567 0 255 0
-26.7346 -19.2521 -4.96737 255 0 255
-28.869 -15.9302 -8.64239 255 0 255
